<svg width="32" height="32" viewBox="0 0 32 32" fill="none" xmlns="http://www.w3.org/2000/svg">
<path d="M15.9995 2C8.26576 2 1.99951 8.26625 1.99951 16C1.99951 23.7337 8.26576 30 15.9995 30C23.7333 30 29.9995 23.7337 29.9995 16C29.9995 8.26625 23.7333 2 15.9995 2ZM10.687 22.1181C10.6011 22.2647 10.4781 22.386 10.3305 22.4699C10.1828 22.5538 10.0156 22.5974 9.84576 22.5963C9.67265 22.5978 9.50254 22.551 9.35451 22.4613C9.24429 22.3974 9.14778 22.3124 9.07049 22.2111C8.99321 22.1098 8.93669 21.9943 8.90417 21.8711C8.87165 21.748 8.86377 21.6196 8.88099 21.4934C8.89821 21.3672 8.94019 21.2456 9.00451 21.1356L9.96014 19.5469C10.0084 19.4649 10.0773 19.3969 10.16 19.3498C10.2427 19.3026 10.3362 19.2779 10.4314 19.2781H10.5726C11.2658 19.2781 11.7508 19.695 11.892 20.0987L10.687 22.1181ZM18.7776 18.9931L12.5195 19H8.36014C8.22927 19.0006 8.09966 18.9745 7.97916 18.9235C7.85866 18.8724 7.74978 18.7974 7.65914 18.7031C7.56849 18.6087 7.49796 18.4968 7.45183 18.3744C7.4057 18.2519 7.38492 18.1214 7.39076 17.9906C7.41076 17.4656 7.86889 17.0681 8.39076 17.0681H11.4058L14.9801 10.9838L13.8226 9.01188C13.562 8.5625 13.6776 7.97 14.1245 7.6875C14.2347 7.61625 14.3581 7.56801 14.4874 7.54569C14.6167 7.52337 14.7492 7.52742 14.8768 7.5576C15.0045 7.58779 15.1248 7.64348 15.2304 7.72133C15.336 7.79918 15.4248 7.89759 15.4914 8.01062L16.1101 9.0675H16.117L16.7364 8.01062C16.8031 7.89817 16.8917 7.8003 16.997 7.72284C17.1023 7.64538 17.2222 7.58991 17.3494 7.55976C17.4766 7.52961 17.6086 7.52538 17.7374 7.54732C17.8663 7.56927 17.9895 7.61694 18.0995 7.6875C18.5439 7.97 18.6583 8.5625 18.3958 9.01375L17.2383 10.9856L16.1133 12.9038L13.6701 17.07V17.0769H17.2708C17.722 17.0769 18.2876 17.3194 18.5164 17.7094L18.5364 17.75C18.7383 18.0931 18.8526 18.3288 18.8526 18.6719C18.8493 18.7833 18.8245 18.893 18.7795 18.995L18.7776 18.9931ZM23.637 19H21.9426V19.0069L23.1814 21.1138C23.3146 21.3356 23.3554 21.601 23.295 21.8526C23.2345 22.1043 23.0777 22.3222 22.8583 22.4594C22.7061 22.5521 22.5314 22.6012 22.3533 22.6012C22.1839 22.6012 22.0174 22.5573 21.87 22.4738C21.7226 22.3904 21.5992 22.2702 21.512 22.125L19.6814 19.0088L18.5439 17.0713L17.0764 14.5625C16.8638 14.2043 16.7483 13.7969 16.7412 13.3804C16.7341 12.9639 16.8356 12.5528 17.0358 12.1875C17.3258 11.6756 17.5476 11.5413 17.5476 11.5413L20.812 17.0625H23.6189C24.1439 17.0625 24.5945 17.4663 24.6189 17.9844C24.6239 18.1161 24.6023 18.2475 24.5553 18.3707C24.5083 18.4938 24.4369 18.6062 24.3454 18.7011C24.2538 18.7959 24.1441 18.8713 24.0226 18.9227C23.9012 18.974 23.7707 19.0003 23.6389 19H23.637Z" fill="white"/>
</svg>
