<svg width="47" height="54" viewBox="0 0 47 54" fill="none" xmlns="http://www.w3.org/2000/svg">
<g clip-path="url(#clip0_1_2953)">
<path d="M44.0263 18.9597H42.7517V12.8182C42.7506 12.7791 42.7469 12.7402 42.7404 12.7017C42.7422 12.455 42.654 12.2161 42.4922 12.0296L32.2613 0.356737L32.2538 0.349227C32.1924 0.283125 32.123 0.225081 32.047 0.176491L31.9793 0.135184C31.9143 0.0990936 31.8456 0.0701355 31.7744 0.0488159L31.718 0.0300407C31.6399 0.010591 31.5597 0.000506585 31.4792 0H6.33045C5.18177 0 4.24929 0.933151 4.24929 2.07847V18.9578H2.97465C1.33153 18.9578 0.000488281 20.2871 0.000488281 21.9281V37.3768C0.000488281 39.0159 1.33341 40.3471 2.97465 40.3471H4.24929V50.9215C4.24929 52.0668 5.18177 53 6.33045 53H40.6705C41.8173 53 42.7517 52.0668 42.7517 50.9215V40.3471H44.0263C45.6676 40.3471 47.0005 39.0177 47.0005 37.3768V21.9281C47.0005 20.289 45.6694 18.9597 44.0263 18.9597ZM6.33045 2.07847H30.4377V12.713C30.4377 13.2876 30.9039 13.7513 31.4792 13.7513H40.6724V18.9578H6.33045V2.07847ZM21.9006 30.5574C19.3739 29.6562 17.7063 28.2593 17.7063 26.0531C17.7063 23.464 19.8946 21.5057 23.4572 21.5057C25.1944 21.5057 26.4333 21.8436 27.3357 22.2698L26.5686 25.0167C25.5856 24.5385 24.5056 24.2925 23.4121 24.2976C21.9232 24.2976 21.2012 24.9942 21.2012 25.7602C21.2012 26.7291 22.0341 27.1553 24.0194 27.8988C26.704 28.8901 27.9429 30.2852 27.9429 32.4256C27.9429 34.9716 26.0047 37.1327 21.8329 37.1327C20.0958 37.1327 18.3831 36.6595 17.5258 36.1864L18.2252 33.3719C19.4057 33.9739 20.7087 34.2976 22.0341 34.3182C23.6133 34.3182 24.448 33.6629 24.448 32.6734C24.448 31.7272 23.728 31.1883 21.9006 30.5574ZM3.99173 29.521C3.99173 24.3633 7.68969 21.5038 12.2882 21.5038C14.0704 21.5038 15.4221 21.8624 16.0312 22.1572L15.3093 24.8815C14.3961 24.4986 13.4139 24.3069 12.4235 24.3183C9.71821 24.3183 7.59945 25.9611 7.59945 29.3389C7.59945 32.3561 9.40237 34.2713 12.4461 34.2713C13.5064 34.2713 14.6344 34.0704 15.3319 33.7756L15.8301 36.4774C15.221 36.7684 13.7771 37.1308 11.9516 37.1308C6.69705 37.1327 3.99173 33.845 3.99173 29.521ZM40.6705 50.362H6.33045V40.3489H40.6705V50.362ZM37.8919 36.9074H33.8781L29.0089 21.7291H32.7745L34.6226 28.1485C35.1396 29.9716 35.6133 31.684 35.9743 33.5747H36.042C36.4264 31.7704 36.8849 29.9827 37.4162 28.2161L39.3564 21.731H43.0074L37.8919 36.9074Z" fill="#ED4C5C"/>
</g>
<defs>
<clipPath id="clip0_1_2953">
<rect width="47" height="54" fill="white" transform="translate(0.000732422)"/>
</clipPath>
</defs>
</svg>
