<svg width="32" height="32" viewBox="0 0 32 32" fill="none" xmlns="http://www.w3.org/2000/svg">
<path d="M3.00232 3.71901V28.2815C3.00248 28.3348 3.01838 28.3869 3.04801 28.4311C3.07764 28.4754 3.11969 28.51 3.16888 28.5305C3.21807 28.551 3.27222 28.5565 3.32453 28.5463C3.37685 28.5362 3.425 28.5108 3.46294 28.4734L16.2523 16.0009L3.46294 3.52713C3.425 3.48972 3.37685 3.46434 3.32453 3.45418C3.27222 3.44402 3.21807 3.44953 3.16888 3.47003C3.11969 3.49052 3.07764 3.52508 3.04801 3.56937C3.01838 3.61366 3.00248 3.66572 3.00232 3.71901Z" fill="white"/>
<path d="M21.6147 10.8732L5.57841 2.03823L5.56841 2.03261C5.29216 1.88261 5.02966 2.25636 5.25591 2.47386L17.8265 14.4939L21.6147 10.8732Z" fill="white"/>
<path d="M5.2581 29.5232C5.0306 29.7407 5.2931 30.1145 5.5706 29.9645L5.5806 29.9588L21.6156 21.1238L17.8275 17.502L5.2581 29.5232Z" fill="white"/>
<path d="M28.0878 14.437L23.6097 11.9707L19.399 15.9995L23.6097 20.0263L28.0878 17.562C29.3059 16.8888 29.3059 15.1101 28.0878 14.437Z" fill="white"/>
</svg>
