<svg width="48" height="54" viewBox="0 0 48 54" fill="none" xmlns="http://www.w3.org/2000/svg">
<path d="M12.7226 27.67C12.7226 26.2162 11.7125 25.3477 9.93154 25.3477C9.20461 25.3477 8.71297 25.4184 8.45471 25.4873V30.1569C8.76079 30.2258 9.13574 30.2507 9.65033 30.2507C11.5499 30.2507 12.7226 29.2884 12.7226 27.67Z" fill="#ED4C5C"/>
<path d="M23.7526 25.3926C22.9549 25.3926 22.4384 25.4634 22.1323 25.5341V35.8796C22.4384 35.9504 22.93 35.9504 23.3758 35.9504C26.6126 35.9734 28.7245 34.1904 28.7245 30.4142C28.7494 27.1296 26.8249 25.3926 23.7526 25.3926Z" fill="#ED4C5C"/>
<path d="M44.8858 19.3155H43.5888V13.0581C43.5877 13.0184 43.5839 12.9787 43.5773 12.9395C43.5794 12.6878 43.4904 12.4439 43.3267 12.2527L32.9143 0.361555L32.9066 0.353904C32.7744 0.210413 32.6059 0.10532 32.4188 0.0497379L32.3614 0.0306075C32.2819 0.0107908 32.2004 0.000516144 32.1185 0H6.52834C5.3595 0 4.41065 0.950758 4.41065 2.11769V19.3155H3.11364C1.44168 19.3155 0.0872803 20.6699 0.0872803 22.3419V38.082C0.0872803 39.752 1.44359 41.1084 3.11364 41.1084H4.41065V51.8843C4.41065 53.0512 5.3595 54.002 6.52834 54.002H41.4711C42.638 54.002 43.5888 53.0512 43.5888 51.8843V41.1084H44.8858C46.5578 41.1084 47.9122 39.752 47.9122 38.082V22.3419C47.9122 20.6699 46.5559 19.3155 44.8858 19.3155ZM6.52834 2.11769H31.0587V12.9529C31.0587 13.5383 31.5331 14.0108 32.1185 14.0108H41.473V19.3155H6.52834V2.11769ZM32.5259 30.2961C32.5259 33.3225 31.4241 35.4115 29.8956 36.7008C28.2313 38.0839 25.6985 38.742 22.6013 38.742C20.7476 38.742 19.4353 38.6234 18.5419 38.5086V22.977C19.8562 22.7666 21.5683 22.6499 23.3761 22.6499C26.3776 22.6499 28.325 23.1893 29.8497 24.339C31.4929 25.5576 32.5259 27.505 32.5259 30.2961ZM4.90994 38.5794V22.977C6.01183 22.7895 7.56135 22.6499 9.74217 22.6499C11.9479 22.6499 13.5203 23.0726 14.5744 23.9163C15.5825 24.714 16.2617 26.0282 16.2617 27.5758C16.2617 29.1254 15.7471 30.4377 14.8078 31.3291C13.5873 32.4788 11.7814 32.9953 9.66947 32.9953C9.20079 32.9953 8.77802 32.9724 8.4509 32.9246V38.5794H4.90994ZM41.4711 51.3104H6.52834V41.1084H41.4711V51.3104ZM44.5396 25.6992H38.462V29.3128H44.1397V32.2225H38.462V38.5794H34.8751V22.7666H44.5396V25.6992Z" fill="#ED4C5C"/>
</svg>
