<svg width="48" height="60" viewBox="0 0 48 60" fill="none" xmlns="http://www.w3.org/2000/svg">
<path fill-rule="evenodd" clip-rule="evenodd" d="M24.9738 0.486914L46.875 7.95058C47.41 8.1375 47.8483 8.7498 47.8354 9.31699V40.4092C47.8354 40.9828 47.468 41.7305 47.0233 42.0785L24.8063 59.3906C24.5871 59.5646 24.2906 59.6549 23.9942 59.6549C23.6977 59.6549 23.4076 59.5646 23.1821 59.3906L0.965064 42.0785C0.520337 41.724 0.152954 40.9764 0.152954 40.4092V9.31699C0.152954 8.7498 0.591236 8.13105 1.1262 7.95058L23.0274 0.486914C23.2916 0.39668 23.6461 0.351562 24.0006 0.351562C24.3551 0.351562 24.7096 0.39668 24.9738 0.486914ZM24.0006 54.1377L43.2076 39.1717V11.6115L24.0006 5.06309L4.79358 11.6115V39.1717L24.0006 54.1377Z" fill="#ED4C5C"/>
<path fill-rule="evenodd" clip-rule="evenodd" d="M16.9688 31.0828L11.9737 36.0779C11.8777 36.1748 11.8239 36.3057 11.8239 36.4421C11.8239 36.5785 11.8777 36.7093 11.9737 36.8062L14.1651 38.9977C14.3649 39.1975 14.6936 39.1975 14.8934 38.9977L19.8885 34.0025C23.4785 36.2648 28.2739 35.833 31.3998 32.707C35.0285 29.0783 35.0285 23.2002 31.3998 19.5715C27.7711 15.9428 21.893 15.9428 18.2643 19.5715C15.1383 22.6975 14.7065 27.4992 16.9688 31.0828ZM28.4801 22.4912C26.4692 20.4738 23.2014 20.4738 21.184 22.4912C19.1666 24.5086 19.1731 27.7699 21.184 29.7873C23.1949 31.8047 26.4627 31.8047 28.4801 29.7873C30.4975 27.7764 30.4975 24.5086 28.4801 22.4912Z" fill="#ED4C5C"/>
</svg>
